<svg width="25" height="25" viewBox="0 0 25 25" fill="none" xmlns="http://www.w3.org/2000/svg">
<path d="M19.7 19.7027C20.3365 19.7027 20.947 19.9555 21.3971 20.4056C21.8471 20.8557 22.1 21.4661 22.1 22.1027C22.1 22.7392 21.8471 23.3496 21.3971 23.7997C20.947 24.2498 20.3365 24.5027 19.7 24.5027C19.0635 24.5027 18.453 24.2498 18.0029 23.7997C17.5529 23.3496 17.3 22.7392 17.3 22.1027C17.3 20.7707 18.368 19.7027 19.7 19.7027ZM0.5 0.502655H4.424L5.552 2.90266H23.3C23.6183 2.90266 23.9235 3.02908 24.1485 3.25413C24.3736 3.47917 24.5 3.7844 24.5 4.10266C24.5 4.30666 24.44 4.51066 24.356 4.70266L20.06 12.4667C19.652 13.1987 18.86 13.7027 17.96 13.7027H9.02L7.94 15.6587L7.904 15.8027C7.904 15.8822 7.93561 15.9585 7.99187 16.0148C8.04813 16.071 8.12444 16.1027 8.204 16.1027H22.1V18.5027H7.7C7.06348 18.5027 6.45303 18.2498 6.00294 17.7997C5.55286 17.3496 5.3 16.7392 5.3 16.1027C5.3 15.6827 5.408 15.2867 5.588 14.9507L7.22 12.0107L2.9 2.90266H0.5V0.502655ZM7.7 19.7027C8.33652 19.7027 8.94697 19.9555 9.39706 20.4056C9.84714 20.8557 10.1 21.4661 10.1 22.1027C10.1 22.7392 9.84714 23.3496 9.39706 23.7997C8.94697 24.2498 8.33652 24.5027 7.7 24.5027C7.06348 24.5027 6.45303 24.2498 6.00294 23.7997C5.55286 23.3496 5.3 22.7392 5.3 22.1027C5.3 20.7707 6.368 19.7027 7.7 19.7027ZM18.5 11.3027L21.836 5.30266H6.668L9.5 11.3027H18.5Z" fill="#391C1D"/>
</svg>
