<svg width="16" height="16" viewBox="0 0 16 16" fill="none" xmlns="http://www.w3.org/2000/svg">
<path d="M15.2727 8V14.4C15.2727 14.8243 15.1195 15.2313 14.8467 15.5314C14.5739 15.8314 14.204 16 13.8182 16H2.18182C1.79605 16 1.42608 15.8314 1.1533 15.5314C0.880519 15.2313 0.727273 14.8243 0.727273 14.4V8C0.534388 8 0.349403 7.91571 0.213013 7.76569C0.0766231 7.61566 0 7.41217 0 7.2V4.8C0 4.37565 0.153246 3.96869 0.426027 3.66863C0.698807 3.36857 1.06878 3.2 1.45455 3.2H3.76C3.67781 2.94299 3.636 2.67245 3.63636 2.4C3.63636 1.76348 3.86623 1.15303 4.2754 0.702944C4.68457 0.252856 5.23953 0 5.81818 0C6.54545 0 7.18545 0.4 7.58545 0.992V0.984L8 1.6L8.41455 0.984V0.992C8.81455 0.4 9.45455 0 10.1818 0C10.7605 0 11.3154 0.252856 11.7246 0.702944C12.1338 1.15303 12.3636 1.76348 12.3636 2.4C12.364 2.67245 12.3222 2.94299 12.24 3.2H14.5455C14.9312 3.2 15.3012 3.36857 15.574 3.66863C15.8468 3.96869 16 4.37565 16 4.8V7.2C16 7.41217 15.9234 7.61566 15.787 7.76569C15.6506 7.91571 15.4656 8 15.2727 8ZM2.18182 14.4H7.27273V8H2.18182V14.4ZM13.8182 14.4V8H8.72727V14.4H13.8182ZM5.81818 1.6C5.6253 1.6 5.44031 1.68429 5.30392 1.83431C5.16753 1.98434 5.09091 2.18783 5.09091 2.4C5.09091 2.61217 5.16753 2.81566 5.30392 2.96569C5.44031 3.11571 5.6253 3.2 5.81818 3.2C6.01107 3.2 6.19605 3.11571 6.33244 2.96569C6.46883 2.81566 6.54545 2.61217 6.54545 2.4C6.54545 2.18783 6.46883 1.98434 6.33244 1.83431C6.19605 1.68429 6.01107 1.6 5.81818 1.6ZM10.1818 1.6C9.98893 1.6 9.80395 1.68429 9.66756 1.83431C9.53117 1.98434 9.45455 2.18783 9.45455 2.4C9.45455 2.61217 9.53117 2.81566 9.66756 2.96569C9.80395 3.11571 9.98893 3.2 10.1818 3.2C10.3747 3.2 10.5597 3.11571 10.6961 2.96569C10.8325 2.81566 10.9091 2.61217 10.9091 2.4C10.9091 2.18783 10.8325 1.98434 10.6961 1.83431C10.5597 1.68429 10.3747 1.6 10.1818 1.6ZM1.45455 4.8V6.4H7.27273V4.8H1.45455ZM8.72727 4.8V6.4H14.5455V4.8H8.72727Z" fill="#7818B4"/>
</svg>
