<svg width="36" height="37" viewBox="0 0 36 37" fill="none" xmlns="http://www.w3.org/2000/svg">
<rect y="0.228516" width="36" height="36" rx="4" fill="#0982D9"/>
<path d="M5.5 7.94752C5.5 6.99802 6.289 6.22852 7.2625 6.22852H27.7375C28.711 6.22852 29.5 6.99802 29.5 7.94752V28.5095C29.5 29.459 28.711 30.2285 27.7375 30.2285H7.2625C6.289 30.2285 5.5 29.459 5.5 28.5095V7.94752ZM12.9145 26.3195V15.482H9.313V26.3195H12.9145ZM11.1145 14.0015C12.37 14.0015 13.1515 13.1705 13.1515 12.1295C13.129 11.066 12.3715 10.2575 11.1385 10.2575C9.9055 10.2575 9.1 11.0675 9.1 12.1295C9.1 13.1705 9.8815 14.0015 11.0905 14.0015H11.1145ZM18.4765 26.3195V20.267C18.4765 19.943 18.5005 19.619 18.5965 19.388C18.856 18.7415 19.4485 18.071 20.4445 18.071C21.748 18.071 22.2685 19.064 22.2685 20.522V26.3195H25.87V20.1035C25.87 16.7735 24.094 15.2255 21.724 15.2255C19.813 15.2255 18.9565 16.2755 18.4765 17.015V17.0525H18.4525C18.4605 17.04 18.4685 17.0275 18.4765 17.015V15.482H14.8765C14.9215 16.499 14.8765 26.3195 14.8765 26.3195H18.4765Z" fill="#EFF5F8"/>
</svg>
