<svg width="36" height="37" viewBox="0 0 36 37" fill="none" xmlns="http://www.w3.org/2000/svg">
<rect y="0.228516" width="36" height="36" rx="4" fill="#B838E6"/>
<g clip-path="url(#clip0_13_184)">
<path d="M19.0286 8.22975C19.7583 8.22695 20.488 8.23428 21.2176 8.25175L21.4116 8.25875C21.6356 8.26675 21.8566 8.27675 22.1236 8.28875C23.1876 8.33875 23.9136 8.50675 24.5506 8.75375C25.2106 9.00775 25.7666 9.35175 26.3226 9.90775C26.831 10.4074 27.2244 11.0117 27.4756 11.6787C27.7226 12.3157 27.8906 13.0427 27.9406 14.1067C27.9526 14.3727 27.9626 14.5947 27.9706 14.8187L27.9766 15.0127C27.9943 15.7419 28.002 16.4713 27.9996 17.2007L28.0006 17.9467V19.2567C28.003 19.9865 27.9954 20.7162 27.9776 21.4457L27.9716 21.6397C27.9636 21.8637 27.9536 22.0847 27.9416 22.3517C27.8916 23.4157 27.7216 24.1417 27.4756 24.7787C27.2252 25.4465 26.8317 26.0513 26.3226 26.5507C25.8225 27.0591 25.2179 27.4525 24.5506 27.7037C23.9136 27.9507 23.1876 28.1187 22.1236 28.1687C21.8566 28.1807 21.6356 28.1907 21.4116 28.1987L21.2176 28.2047C20.4881 28.2225 19.7583 28.2302 19.0286 28.2277L18.2826 28.2287H16.9736C16.2438 28.2312 15.5141 28.2235 14.7846 28.2057L14.5906 28.1997C14.3532 28.1911 14.1158 28.1811 13.8786 28.1697C12.8146 28.1197 12.0886 27.9497 11.4506 27.7037C10.7833 27.4531 10.1788 27.0596 9.67958 26.5507C9.17062 26.051 8.7768 25.4463 8.52558 24.7787C8.27858 24.1417 8.11058 23.4157 8.06058 22.3517C8.04944 22.1145 8.03944 21.8771 8.03058 21.6397L8.02558 21.4457C8.00714 20.7162 7.99881 19.9865 8.00058 19.2567V17.2007C7.99779 16.4713 8.00512 15.7419 8.02258 15.0127L8.02958 14.8187C8.03758 14.5947 8.04758 14.3727 8.05958 14.1067C8.10958 13.0417 8.27758 12.3167 8.52458 11.6787C8.77595 11.0114 9.17054 10.4072 9.68058 9.90875C10.1795 9.3995 10.7835 9.00532 11.4506 8.75375C12.0886 8.50675 12.8136 8.33875 13.8786 8.28875L14.5906 8.25875L14.7846 8.25375C15.5138 8.23532 16.2432 8.22698 16.9726 8.22875L19.0286 8.22975ZM18.0006 13.2297C17.3381 13.2204 16.6803 13.3428 16.0656 13.5898C15.4508 13.8369 14.8912 14.2036 14.4194 14.6688C13.9476 15.134 13.573 15.6883 13.3173 16.2995C13.0616 16.9107 12.9299 17.5667 12.9299 18.2292C12.9299 18.8918 13.0616 19.5478 13.3173 20.159C13.573 20.7702 13.9476 21.3245 14.4194 21.7897C14.8912 22.2549 15.4508 22.6216 16.0656 22.8687C16.6803 23.1157 17.3381 23.2381 18.0006 23.2287C19.3267 23.2287 20.5984 22.702 21.5361 21.7643C22.4738 20.8266 23.0006 19.5548 23.0006 18.2287C23.0006 16.9027 22.4738 15.6309 21.5361 14.6932C20.5984 13.7555 19.3267 13.2297 18.0006 13.2297ZM18.0006 15.2297C18.3991 15.2224 18.7951 15.2945 19.1654 15.442C19.5357 15.5894 19.8729 15.8091 20.1574 16.0883C20.4418 16.3675 20.6678 16.7006 20.822 17.0681C20.9763 17.4356 21.0558 17.8302 21.0558 18.2287C21.0559 18.6273 20.9766 19.0219 20.8224 19.3895C20.6683 19.757 20.4424 20.0902 20.1581 20.3695C19.8737 20.6488 19.5366 20.8686 19.1663 21.0162C18.796 21.1637 18.4001 21.236 18.0016 21.2287C17.2059 21.2287 16.4429 20.9127 15.8803 20.3501C15.3176 19.7875 15.0016 19.0244 15.0016 18.2287C15.0016 17.4331 15.3176 16.67 15.8803 16.1074C16.4429 15.5448 17.2059 15.2287 18.0016 15.2287L18.0006 15.2297ZM23.2506 11.7297C22.928 11.7427 22.6229 11.8799 22.3992 12.1127C22.1755 12.3455 22.0506 12.6559 22.0506 12.9787C22.0506 13.3016 22.1755 13.612 22.3992 13.8448C22.6229 14.0776 22.928 14.2148 23.2506 14.2277C23.5821 14.2277 23.9 14.096 24.1345 13.8616C24.3689 13.6272 24.5006 13.3093 24.5006 12.9777C24.5006 12.6462 24.3689 12.3283 24.1345 12.0939C23.9 11.8594 23.5821 11.7277 23.2506 11.7277V11.7297Z" fill="#FAFBFF"/>
</g>
<defs>
<clipPath id="clip0_13_184">
<rect width="24" height="24" fill="white" transform="translate(6 6.22852)"/>
</clipPath>
</defs>
</svg>
