<svg width="25" height="24" viewBox="0 0 25 24" fill="none" xmlns="http://www.w3.org/2000/svg">
<path d="M17.6527 15.097H16.5686L16.1844 14.7265C17.5756 13.1128 18.3403 11.0527 18.3388 8.92204C18.3388 7.15795 17.8157 5.43348 16.8356 3.9667C15.8555 2.49991 14.4625 1.35669 12.8327 0.681606C11.2029 0.00651966 9.40949 -0.170114 7.6793 0.174042C5.94911 0.518199 4.35983 1.36769 3.11243 2.61508C1.86503 3.86248 1.01554 5.45176 0.671387 7.18195C0.327231 8.91214 0.503865 10.7055 1.17895 12.3353C1.85404 13.9651 2.99726 15.3582 4.46404 16.3382C5.93083 17.3183 7.6553 17.8414 9.41938 17.8414C11.6286 17.8414 13.6595 17.0318 15.2238 15.687L15.5943 16.0713V17.1553L22.4554 24.0027L24.5 21.9581L17.6527 15.097ZM9.41938 15.097C6.00258 15.097 3.24443 12.3388 3.24443 8.92204C3.24443 5.50523 6.00258 2.74708 9.41938 2.74708C12.8362 2.74708 15.5943 5.50523 15.5943 8.92204C15.5943 12.3388 12.8362 15.097 9.41938 15.097Z" fill="#391C1D"/>
</svg>
