<svg width="24" height="25" viewBox="0 0 24 25" fill="none" xmlns="http://www.w3.org/2000/svg">
<path d="M12 12.5027C10.35 12.5027 8.9375 11.9152 7.7625 10.7402C6.5875 9.56516 6 8.15266 6 6.50266C6 4.85265 6.5875 3.44016 7.7625 2.26516C8.9375 1.09016 10.35 0.502655 12 0.502655C13.65 0.502655 15.0625 1.09016 16.2375 2.26516C17.4125 3.44016 18 4.85265 18 6.50266C18 8.15266 17.4125 9.56516 16.2375 10.7402C15.0625 11.9152 13.65 12.5027 12 12.5027ZM0 24.5027V20.3027C0 19.4527 0.219 18.6717 0.657 17.9597C1.095 17.2477 1.676 16.7037 2.4 16.3277C3.95 15.5527 5.525 14.9717 7.125 14.5847C8.725 14.1977 10.35 14.0037 12 14.0027C13.65 14.0027 15.275 14.1967 16.875 14.5847C18.475 14.9727 20.05 15.5537 21.6 16.3277C22.325 16.7027 22.9065 17.2467 23.3445 17.9597C23.7825 18.6727 24.001 19.4537 24 20.3027V24.5027H0ZM3 21.5027H21V20.3027C21 20.0277 20.9315 19.7777 20.7945 19.5527C20.6575 19.3277 20.476 19.1527 20.25 19.0277C18.9 18.3527 17.5375 17.8467 16.1625 17.5097C14.7875 17.1727 13.4 17.0037 12 17.0027C10.6 17.0027 9.2125 17.1717 7.8375 17.5097C6.4625 17.8477 5.1 18.3537 3.75 19.0277C3.525 19.1527 3.3435 19.3277 3.2055 19.5527C3.0675 19.7777 2.999 20.0277 3 20.3027V21.5027ZM12 9.50266C12.825 9.50266 13.5315 9.20916 14.1195 8.62216C14.7075 8.03516 15.001 7.32866 15 6.50266C15 5.67766 14.7065 4.97165 14.1195 4.38465C13.5325 3.79765 12.826 3.50365 12 3.50266C11.175 3.50266 10.469 3.79665 9.882 4.38465C9.295 4.97265 9.001 5.67866 9 6.50266C9 7.32765 9.294 8.03416 9.882 8.62216C10.47 9.21016 11.176 9.50366 12 9.50266Z" fill="#391C1D"/>
</svg>
