<svg width="25" height="23" viewBox="0 0 25 23" fill="none" xmlns="http://www.w3.org/2000/svg">
<path d="M12.62 19.1457L12.5 19.2656L12.368 19.1457C6.668 13.9784 2.9 10.5615 2.9 7.09666C2.9 4.69884 4.7 2.90048 7.1 2.90048C8.948 2.90048 10.748 4.09939 11.384 5.7299H13.616C14.252 4.09939 16.052 2.90048 17.9 2.90048C20.3 2.90048 22.1 4.69884 22.1 7.09666C22.1 10.5615 18.332 13.9784 12.62 19.1457ZM17.9 0.502655C15.812 0.502655 13.808 1.47377 12.5 2.99639C11.192 1.47377 9.188 0.502655 7.1 0.502655C3.404 0.502655 0.5 3.39203 0.5 7.09666C0.5 11.6166 4.58 15.3212 10.76 20.9201L12.5 22.5027L14.24 20.9201C20.42 15.3212 24.5 11.6166 24.5 7.09666C24.5 3.39203 21.596 0.502655 17.9 0.502655Z" fill="#391C1D"/>
</svg>
