<svg width="321" height="27" viewBox="0 0 321 27" fill="none" xmlns="http://www.w3.org/2000/svg">
<g clip-path="url(#clip0_59_421)">
<path d="M16.325 1.16357H12.325L0.924988 26.3236H5.50499L14.305 6.21357L23.145 26.3236H27.745L16.325 1.16357Z" fill="white"/>
<path d="M60.585 15.2736C60.585 17.7836 60.025 19.6636 58.935 20.8636C58.3081 21.4826 57.557 21.9613 56.7312 22.2682C55.9054 22.5751 55.0239 22.703 54.145 22.6436C49.835 22.6436 47.745 20.2336 47.745 15.2736V1.16357H43.405V15.4136C43.405 18.9836 44.405 21.7736 46.235 23.6936C47.2788 24.6929 48.517 25.4669 49.8725 25.9675C51.2281 26.4681 52.6722 26.6846 54.115 26.6036C55.5525 26.6886 56.9922 26.4788 58.3456 25.987C59.699 25.4951 60.9375 24.7317 61.985 23.7436C63.865 21.8236 64.825 19.0336 64.825 15.4436V1.16357H60.585V15.2736Z" fill="white"/>
<path d="M80.995 5.05357H89.325V26.3236H93.625V5.05357H101.955V1.16357H80.995V5.05357Z" fill="white"/>
<path d="M136.175 11.6036H123.095V1.16357H118.755V26.3236H123.095V15.4936H136.175V26.3236H140.515V1.16357H136.175V11.6036Z" fill="white"/>
<path d="M179.315 22.4336V26.3236H160.825V1.16357H178.835V5.05357H165.155V22.4336H179.315Z" fill="white"/>
<path d="M215.375 18.4836L201.445 1.16357H197.955V26.3236H202.295V9.00357L216.225 26.3236H219.715V1.16357H215.375V18.4836Z" fill="white"/>
<path d="M236.515 5.05357H244.845V26.3236H249.145V5.05357H257.475V1.16357H236.515V5.05357Z" fill="white"/>
<path d="M278.615 1.16357H274.275V26.3236H278.615V1.16357Z" fill="white"/>
<path d="M316.915 19.8636C316.084 20.7609 315.072 21.4724 313.947 21.9515C312.822 22.4306 311.608 22.6664 310.385 22.6436C308.751 22.6649 307.14 22.2654 305.705 21.4836C304.371 20.7315 303.265 19.6328 302.505 18.3036C301.696 16.9202 301.272 15.346 301.275 13.7436C301.272 12.1412 301.696 10.567 302.505 9.18357C303.276 7.84558 304.401 6.74546 305.755 6.00357C307.19 5.22171 308.801 4.82223 310.435 4.84357C311.655 4.81627 312.867 5.04614 313.992 5.51823C315.117 5.99031 316.13 6.69403 316.965 7.58357L317.265 7.90357L320.135 5.12357L319.855 4.81357C318.704 3.52273 317.27 2.51636 315.665 1.87357C313.704 1.11884 311.605 0.789187 309.507 0.906413C307.409 1.02364 305.36 1.58507 303.495 2.55357C301.512 3.62267 299.859 5.2133 298.715 7.15357C297.542 9.15058 296.93 11.4275 296.945 13.7436C296.914 16.0551 297.508 18.332 298.665 20.3336C299.807 22.2683 301.452 23.8579 303.425 24.9336C305.509 26.0606 307.846 26.6355 310.215 26.6036C312.059 26.6212 313.89 26.2816 315.605 25.6036C317.216 24.9372 318.652 23.911 319.805 22.6036L320.085 22.2836L317.215 19.5036L316.915 19.8636Z" fill="white"/>
</g>
<defs>
<clipPath id="clip0_59_421">
<rect width="319.15" height="25.72" fill="white" transform="translate(0.924988 0.883789)"/>
</clipPath>
</defs>
</svg>
